<svg width="35" height="35" viewBox="0 0 35 35" fill="none" xmlns="http://www.w3.org/2000/svg">
<path d="M5 0H30C32.75 0 35 2.25 35 5V30C35 32.75 32.75 35 30 35H5C2.25 35 0 32.75 0 30V5C0 2.25 2.25 0 5 0Z" fill="black"/>
<path fill-rule="evenodd" clip-rule="evenodd" d="M14 17.625V29.75C14 29.875 14.125 30.125 14.375 30.125H19.25C19.5 30.125 19.625 30 19.625 29.75V17.5H23.125C23.25 17.5 23.5 17.375 23.5 17.25L23.875 13.5C23.875 13.25 23.75 13.125 23.5 13.125H19.625V10.5C19.625 9.875 20.125 9.375 20.875 9.375H23.625C23.875 9.375 24 9.25 24 9V5.375C23.75 5.125 23.625 5 23.375 5H18.875C16.25 5 14 7 14 9.5V13.125H11.625C11.375 13.125 11.25 13.25 11.25 13.5V17.25C11.25 17.375 11.375 17.625 11.625 17.625H14Z" fill="white"/>
</svg>
